<?xml version="1.0" encoding="UTF-8" standalone="no"?>
<svg
   xmlns:dc="http://purl.org/dc/elements/1.1/"
   xmlns:cc="http://creativecommons.org/ns#"
   xmlns:rdf="http://www.w3.org/1999/02/22-rdf-syntax-ns#"
   xmlns:svg="http://www.w3.org/2000/svg"
   xmlns="http://www.w3.org/2000/svg"
   width="128"
   height="128"
   viewBox="0 0 33.866666 33.866668"
   version="1.1"
   id="svg8">
  <defs
     id="defs2" />
  <metadata
     id="metadata5">
    <rdf:RDF>
      <cc:Work
         rdf:about="">
        <dc:format>image/svg+xml</dc:format>
        <dc:type
           rdf:resource="http://purl.org/dc/dcmitype/StillImage" />
        <dc:title></dc:title>
      </cc:Work>
    </rdf:RDF>
  </metadata>
  <g
     style="stroke-width:0.9999097"
     id="layer1"
     transform="matrix(1.0001806,0,0,1,-0.00597882,-263.13333)">
    <g
       style="stroke-width:0.9999097"
       id="g1004">
      <g
         transform="matrix(2.155311,0,0,1.965038,-23.391196,-288.86603)"
         style="opacity:1;fill:none;fill-opacity:1;stroke:#000000;stroke-width:0.4858703;stroke-linecap:round;stroke-linejoin:round;stroke-miterlimit:4;stroke-dasharray:none;stroke-dashoffset:0;stroke-opacity:1"
         id="g817">
        <path
           id="path831"
           style="fill:none;fill-opacity:1;fill-rule:evenodd;stroke:#000000;stroke-width:0.4858703;stroke-linejoin:round;stroke-miterlimit:4;stroke-dasharray:none;stroke-opacity:1"
           d="m 14.875477,282.6352 -3.776927,0.51083 v 5.22224" />
        <path
           id="path835"
           style="fill:none;fill-opacity:1;fill-rule:evenodd;stroke:#000000;stroke-width:0.4858703;stroke-linejoin:round;stroke-miterlimit:4;stroke-dasharray:none;stroke-opacity:1"
           d="m 14.875477,282.6352 4.046381,0.69869 -0.01191,2.02048" />
        <path
           id="path837"
           style="fill:none;fill-opacity:1;fill-rule:evenodd;stroke:#000000;stroke-width:0.4858703;stroke-linejoin:round;stroke-miterlimit:4;stroke-dasharray:none;stroke-opacity:1"
           d="m 11.09855,283.14603 3.826406,1.06166 3.996902,-0.8738 -4.046381,-0.69869 z" />
      </g>
      <g
         style="fill:none;stroke:#000000;stroke-width:0.9999097;stroke-opacity:1"
         transform="translate(-6.5863508,-5.7044236)"
         id="g867">
        <path
           style="opacity:1;fill:none;fill-opacity:1;stroke:#000000;stroke-width:0.9999097;stroke-linecap:round;stroke-linejoin:round;stroke-miterlimit:4;stroke-dasharray:none;stroke-dashoffset:0;stroke-opacity:1"
           d="m 28.196936,269.3376 -0.0037,28.19132 11.7598,-5.66824 z"
           id="path847-7" />
      </g>
      <g
         id="g967"
         style="fill:none;stroke:#000000;stroke-width:0.9999097;stroke-opacity:1">
        <path
           id="path847"
           style="opacity:1;fill:none;fill-opacity:1;stroke:#000000;stroke-width:0.9999097;stroke-linecap:round;stroke-linejoin:round;stroke-miterlimit:4;stroke-dasharray:none;stroke-dashoffset:0;stroke-opacity:1"
           d="m 17.365632,271.86616 -3.86618,7.49836 c 3.816237,1.01463 6.474261,4.46722 6.479191,8.41603 -0.0016,0.90867 -0.145321,1.8115 -0.425814,2.6758 l 2.054138,1.36839 0.0036,-28.19156 -4.244953,8.23298 m 2.612768,15.91417 c 1e-6,4.81574 -3.903928,8.71967 -8.719668,8.71967 -4.8157405,0 -8.7196694,-3.90393 -8.7196685,-8.71967 4.6e-6,-4.81574 3.9039319,-8.71966 8.7196685,-8.71966 4.815736,0 8.719663,3.90392 8.719668,8.71966 z m -14.5651456,-6.6688 -4.8836235,-3.32295 v -10.2619 l 8.2470949,2.0862 -0.033409,9.7574 m 8.6479762,-11.47445 -8.6145672,1.71705 -0.033409,9.7574" />
      </g>
    </g>
  </g>
</svg>
