<?xml version="1.0" encoding="UTF-8" standalone="no"?>
<svg
   xmlns:dc="http://purl.org/dc/elements/1.1/"
   xmlns:cc="http://creativecommons.org/ns#"
   xmlns:rdf="http://www.w3.org/1999/02/22-rdf-syntax-ns#"
   xmlns:svg="http://www.w3.org/2000/svg"
   xmlns="http://www.w3.org/2000/svg"
   width="24"
   height="24"
   viewBox="0 0 23.999999 23.999999"
   id="svg2"
   version="1.1">
  <defs
     id="defs4" />
  <metadata
     id="metadata7">
    <rdf:RDF>
      <cc:Work
         rdf:about="">
        <dc:format>image/svg+xml</dc:format>
        <dc:type
           rdf:resource="http://purl.org/dc/dcmitype/StillImage" />
        <dc:title></dc:title>
      </cc:Work>
    </rdf:RDF>
  </metadata>
  <g
     id="layer1"
     transform="translate(0,-1028.3622)">
    <path
       style="fill:none;fill-rule:evenodd;stroke:#000000;stroke-width:1.15729678;stroke-opacity:0.50196081"
       id="path845"
       d="m 0.04419417,1028.3647 c 0.56060425,0.5163 -0.41936212,1.0104 -0.85810285,0.9318 -1.18896022,-0.2131 -1.44046732,-1.7144 -1.00541942,-2.648 0.7781988,-1.6698 2.9658625,-1.9517 4.4378308,-1.079 2.1601727,1.2807 2.4773874,4.2339 1.152736,6.2277 -1.765552,2.6573 -5.5079413,3.009 -8.0175588,1.2264 -3.1580975,-2.2433 -3.5438372,-6.7848 -1.3000525,-9.8075 2.717524,-3.6609 8.063054,-4.0804 11.5972867,-1.3737 4.1649709,3.1898 4.6181459,9.3424 1.4473691,13.3872 -3.6607873,4.6698 -10.6223488,5.1566 -15.1770147,1.521 -5.1753005,-4.131 -5.6956255,-11.9028 -1.5946856,-16.9669 4.6006351,-5.6811 13.18355,-6.235 18.7567426,-1.6683 6.1873005,5.0698 6.7746885,14.4645 1.7420025,20.5466"
       transform="matrix(0.86434008,0,0,0.86382517,10.873209,153.12237)" />
  </g>
</svg>
