<?xml version="1.0" encoding="UTF-8" standalone="no"?>
<svg
   xmlns:dc="http://purl.org/dc/elements/1.1/"
   xmlns:cc="http://creativecommons.org/ns#"
   xmlns:rdf="http://www.w3.org/1999/02/22-rdf-syntax-ns#"
   xmlns:svg="http://www.w3.org/2000/svg"
   xmlns="http://www.w3.org/2000/svg"
   id="svg8"
   version="1.1"
   viewBox="0 0 9.2604165 9.2604169"
   height="35"
   width="35">
  <defs
     id="defs2" />
  <metadata
     id="metadata5">
    <rdf:RDF>
      <cc:Work
         rdf:about="">
        <dc:format>image/svg+xml</dc:format>
        <dc:type
           rdf:resource="http://purl.org/dc/dcmitype/StillImage" />
        <dc:title></dc:title>
      </cc:Work>
    </rdf:RDF>
  </metadata>
  <g
     transform="translate(0,-287.73957)"
     id="layer1">
    <g
       id="g834">
      <path
         id="rect815"
         d="m 4.6302083,287.98957 c -0.3280576,0 -0.59192,0.27867 -0.59192,0.62535 v 3.16293 H 0.87535252 c -0.34668125,0 -0.62535254,0.26386 -0.62535254,0.59192 0,0.32805 0.27867129,0.59192 0.62535254,0.59192 H 4.0382883 v 3.16294 c 0,0.34668 0.2638624,0.62535 0.59192,0.62535 0.3280577,0 0.5919201,-0.27867 0.5919201,-0.62535 v -3.16294 H 8.385064 c 0.3466815,0 0.6253527,-0.26387 0.6253527,-0.59192 0,-0.32806 -0.2786712,-0.59192 -0.6253527,-0.59192 H 5.2221284 v -3.16293 c 0,-0.34668 -0.2638624,-0.62535 -0.5919201,-0.62535 z"
         style="opacity:1;fill:none;fill-opacity:1;stroke:#000000;stroke-width:0.5;stroke-linecap:round;stroke-linejoin:round;stroke-miterlimit:4;stroke-dasharray:none;stroke-dashoffset:0;stroke-opacity:1" />
    </g>
  </g>
</svg>
